<svg width="64" height="64" viewBox="0 0 64 64" fill="none" xmlns="http://www.w3.org/2000/svg">
<g clip-path="url(#clip0_453_5240)">
<path d="M23.266 14.8936C22.9851 14.4576 22.5427 14.1511 22.0358 14.0414C21.529 13.9316 20.9994 14.0277 20.5634 14.3085C17.992 15.9594 15.7088 18.0209 13.8046 20.4107C13.1533 19.5761 12.4516 18.7821 11.7033 18.0331C11.3365 17.667 10.8394 17.4615 10.3211 17.4617C9.80283 17.462 9.30587 17.668 8.9394 18.0344C8.57294 18.4009 8.36695 18.8979 8.3667 19.4161C8.36645 19.9344 8.57196 20.4315 8.93808 20.7984C10.1498 22.0145 11.2186 23.3652 12.1237 24.824C12.2979 25.104 12.54 25.3353 12.8276 25.4965C13.1152 25.6577 13.4389 25.7436 13.7686 25.7462H13.7838C14.1109 25.7462 14.4328 25.6641 14.72 25.5075C15.0072 25.3508 15.2505 25.1247 15.4276 24.8497C17.2963 21.9389 19.7702 19.465 22.6809 17.5963C22.8968 17.4573 23.0831 17.2771 23.2294 17.066C23.3756 16.8549 23.4788 16.6171 23.5332 16.3661C23.5875 16.1151 23.5919 15.8559 23.546 15.6033C23.5002 15.3506 23.405 15.1094 23.266 14.8936Z" fill="white"/>
<path d="M23.266 29.4775C22.9851 29.0416 22.5426 28.7351 22.0358 28.6253C21.529 28.5156 20.9994 28.6117 20.5634 28.8924C17.992 30.5434 15.7088 32.6048 13.8046 34.9947C13.1533 34.1601 12.4516 33.366 11.7033 32.6171C11.3365 32.251 10.8394 32.0454 10.3211 32.0457C9.80283 32.0459 9.30587 32.2519 8.9394 32.6184C8.57294 32.9849 8.36695 33.4818 8.3667 34.0001C8.36645 34.5183 8.57196 35.0155 8.93808 35.3823C10.1498 36.5985 11.2186 37.9491 12.1237 39.408C12.2979 39.6879 12.54 39.9192 12.8276 40.0805C13.1152 40.2417 13.4389 40.3276 13.7686 40.3301H13.7838C14.1109 40.3301 14.4328 40.248 14.72 40.0914C15.0072 39.9348 15.2505 39.7086 15.4276 39.4336C17.2963 36.5229 19.7702 34.049 22.6809 32.1803C22.8968 32.0412 23.0831 31.861 23.2294 31.6499C23.3756 31.4389 23.4788 31.2011 23.5332 30.9501C23.5875 30.6991 23.5919 30.4399 23.546 30.1872C23.5002 29.9346 23.405 29.6934 23.266 29.4775Z" fill="white"/>
<path d="M20.563 43.4755C17.9916 45.1265 15.7084 47.1879 13.8042 49.5778C13.1529 48.7431 12.4512 47.9491 11.7029 47.2001C11.3362 46.8338 10.8389 46.628 10.3205 46.6282C9.80212 46.6283 9.30499 46.8343 8.93842 47.2009C8.57186 47.5675 8.36586 48.0646 8.36572 48.583C8.36558 49.1014 8.57131 49.5986 8.93768 49.9654C10.1494 51.1816 11.2182 52.5322 12.1233 53.9911C12.2975 54.271 12.5397 54.5023 12.8272 54.6635C13.1148 54.8247 13.4385 54.9106 13.7682 54.9132H13.7834C14.1105 54.9132 14.4324 54.8311 14.7196 54.6745C15.0068 54.5179 15.2501 54.2917 15.4272 54.0167C17.2959 51.106 19.7698 48.632 22.6805 46.7633C23.1165 46.4825 23.423 46.04 23.5328 45.5332C23.6425 45.0263 23.5464 44.4967 23.2656 44.0607C22.9848 43.6247 22.5423 43.3181 22.0355 43.2083C21.5286 43.0986 20.999 43.1947 20.563 43.4755Z" fill="white"/>
<path d="M7.96 60.0601C7.4316 60.0603 6.90833 59.9563 6.42017 59.7541C5.932 59.5518 5.48852 59.2553 5.11511 58.8814C4.74171 58.5075 4.44571 58.0637 4.24407 57.5753C4.04243 57.0868 3.9391 56.5635 3.94 56.0351V12.875C3.93909 12.3466 4.04241 11.8232 4.24406 11.3348C4.4457 10.8464 4.74169 10.4025 5.1151 10.0286C5.48851 9.65477 5.93199 9.35822 6.42016 9.15598C6.90833 8.95373 7.43159 8.84976 7.96 8.85001H13.15C13.15 8.97323 13.1743 9.09524 13.2216 9.20903C13.2688 9.32281 13.3382 9.42613 13.4255 9.51302C13.5129 9.59992 13.6166 9.66868 13.7306 9.71536C13.8446 9.76204 13.9668 9.78571 14.09 9.78501H33.065C33.1882 9.78571 33.3104 9.76204 33.4244 9.71536C33.5384 9.66868 33.6421 9.59992 33.7295 9.51302C33.8168 9.42613 33.8862 9.32281 33.9334 9.20903C33.9807 9.09524 34.005 8.97323 34.005 8.85001H39.195C39.7233 8.85018 40.2464 8.95444 40.7343 9.15683C41.2223 9.35923 41.6656 9.65579 42.039 10.0296C42.4123 10.4034 42.7083 10.8471 42.9101 11.3353C43.1119 11.8235 43.2155 12.3467 43.215 12.875V25.675C43.58 25.76 43.945 25.86 44.31 25.97C45.0751 26.2045 45.86 26.3685 46.655 26.46V12.875C46.655 10.8965 45.869 8.99902 44.47 7.6C43.071 6.20099 41.1735 5.41502 39.195 5.41501H34.005C34.0017 5.16719 33.9015 4.93052 33.7257 4.75574C33.55 4.58096 33.3128 4.48198 33.065 4.48001H30.67C30.6703 3.95725 30.5676 3.43957 30.3677 2.95654C30.1678 2.47352 29.8746 2.03464 29.505 1.665C29.1354 1.29536 28.6965 1.00221 28.2135 0.802308C27.7304 0.602408 27.2128 0.499683 26.69 0.500007H20.465C19.9418 0.499033 19.4236 0.601278 18.94 0.800886C18.4564 1.00049 18.0169 1.29354 17.6468 1.66325C17.2766 2.03295 16.983 2.47205 16.7828 2.9554C16.5826 3.43874 16.4797 3.95684 16.48 4.48001H14.09C13.9665 4.47976 13.8442 4.50393 13.73 4.55112C13.6159 4.59832 13.5123 4.66761 13.425 4.75501C13.3377 4.84128 13.2684 4.94406 13.2212 5.05737C13.174 5.17068 13.1498 5.29225 13.15 5.41501H7.96C5.98149 5.41502 4.08402 6.20099 2.685 7.6C1.28598 8.99902 0.500013 10.8965 0.5 12.875V56.035C0.499813 58.014 1.28556 59.9121 2.68447 61.312C4.08339 62.7119 5.98097 63.4989 7.96 63.5H34.81C34.0512 62.4389 33.4359 61.2823 32.98 60.0601L7.96 60.0601Z" fill="white"/>
<path d="M63.1772 41.4826C63.1772 41.4826 64.9951 31.0766 60.0028 29.2185C57.6976 28.3722 55.1754 28.322 52.8383 29.0758C49.7492 30.0245 46.4465 30.0245 43.3574 29.0758C41.0204 28.322 38.4982 28.3722 36.193 29.2185C31.2007 31.0767 33.0186 41.4826 33.0186 41.4826C33.2935 42.9169 33.9478 44.2514 34.9135 45.3471C35.1363 45.5964 35.2969 45.895 35.3821 46.2184C35.4673 46.5417 35.4746 46.8807 35.4036 47.2074C34.773 50.2457 33.8733 58.6079 38.8407 63.1767C39.0163 63.3341 39.2333 63.438 39.466 63.476C39.6988 63.5141 39.9376 63.4847 40.1542 63.3914C40.3707 63.298 40.5561 63.1446 40.6883 62.9493C40.8205 62.754 40.894 62.525 40.9002 62.2892C40.929 59.7229 41.4397 57.1849 42.4057 54.8071C42.8939 53.7048 43.6917 52.7679 44.7021 52.1102C45.7126 51.4526 46.8923 51.1025 48.0979 51.1025C49.3035 51.1025 50.4832 51.4526 51.4937 52.1102C52.5041 52.7679 53.3019 53.7048 53.7901 54.8071C54.7561 57.1848 55.2668 59.7229 55.2957 62.2892C55.3018 62.525 55.3754 62.754 55.5076 62.9493C55.6398 63.1446 55.8251 63.298 56.0417 63.3913C56.2583 63.4847 56.497 63.514 56.7298 63.476C56.9625 63.4379 57.1795 63.3341 57.3551 63.1766C62.3225 58.6079 61.4228 50.2457 60.7922 47.2074C60.7212 46.8807 60.7286 46.5417 60.8137 46.2184C60.8989 45.895 61.0595 45.5964 61.2824 45.3471C62.248 44.2514 62.9023 42.9169 63.1772 41.4826ZM52.7719 35.7163C49.7264 36.6541 46.4693 36.6541 43.4239 35.7163C43.241 35.6603 43.0711 35.5687 42.9236 35.4469C42.7762 35.3252 42.6541 35.1755 42.5645 35.0066C42.4749 34.8377 42.4194 34.6527 42.4013 34.4624C42.3831 34.272 42.4026 34.0799 42.4587 33.8971C42.5148 33.7143 42.6063 33.5443 42.7281 33.3968C42.8499 33.2494 42.9995 33.1273 43.1684 33.0377C43.3374 32.9481 43.5223 32.8926 43.7127 32.8745C43.903 32.8563 44.0951 32.8758 44.2779 32.9319C46.7669 33.6986 49.4289 33.6986 51.9178 32.9319C52.287 32.8187 52.6861 32.8567 53.0273 33.0377C53.3685 33.2187 53.6238 33.5279 53.737 33.8971C53.8503 34.2663 53.8122 34.6654 53.6312 35.0066C53.4502 35.3478 53.1411 35.6031 52.7719 35.7163Z" fill="white"/>
</g>
<defs>
<clipPath id="clip0_453_5240">
<rect width="64" height="64" fill="white"/>
</clipPath>
</defs>
</svg>
