<svg width="64" height="64" viewBox="0 0 64 64" fill="none" xmlns="http://www.w3.org/2000/svg">
<path d="M37.9227 15.5136L39.2259 19.4235L40.5292 15.5137C40.9137 14.3601 41.6827 13.3531 42.6946 12.6785L45.6837 10.6859L43.6813 10.0184C42.0488 9.47424 40.7493 8.17474 40.2052 6.54224L39.2258 3.60449L38.2466 6.54224C37.7024 8.17474 36.4028 9.47437 34.7704 10.0184L32.7681 10.6859L35.7572 12.6785C36.7691 13.3531 37.5382 14.3601 37.9227 15.5136ZM39.2258 9.13549C39.7813 9.92699 40.4849 10.6084 41.2951 11.1381C40.4559 11.7494 39.7507 12.5312 39.2258 13.4224C38.7011 12.5312 37.9956 11.7495 37.1566 11.1381C37.9668 10.6084 38.6704 9.92699 39.2258 9.13549Z" fill="white"/>
<path d="M13.673 45.6551L12.3871 41.7969L11.1012 45.655C10.0803 48.7177 7.77559 51.162 4.77796 52.3611L2.38184 53.3196L4.77796 54.2781C7.79696 55.4856 10.2211 57.9099 11.4287 60.9289L12.3872 63.3249L13.3457 60.9289C14.5533 57.9099 16.9775 55.4856 19.9965 54.2781L22.3926 53.3196L19.9965 52.3611C16.9987 51.162 14.6938 48.7179 13.673 45.6551ZM12.3871 58.2214C11.1878 56.2055 9.49246 54.5116 7.47571 53.3139C9.58959 52.03 11.2925 50.1713 12.3871 47.9468C13.4817 50.1711 15.1845 52.03 17.2985 53.3139C15.2816 54.5116 13.5863 56.2055 12.3871 58.2214Z" fill="white"/>
<path d="M63.2175 23.8741L53.4406 7.81205C50.7609 3.40943 45.8946 0.674805 40.7407 0.674805C37.6194 0.674805 34.5245 1.6823 32 3.51568C29.4755 1.6823 26.3806 0.674805 23.2593 0.674805C18.1055 0.674805 13.2391 3.40955 10.5594 7.81193L0.7825 23.8738C0.270625 24.7149 0 25.6798 0 26.6643C0 27.3618 0.133375 28.0433 0.396625 28.6892L4.03125 37.6106C5.14612 40.3467 6.64988 42.8963 8.50088 45.1887L10.1071 43.8916C8.38288 41.7563 6.98187 39.3809 5.94312 36.8316L2.72388 28.9298L4.26762 30.8298C7.59675 34.9272 11.8761 38.2924 16.6432 40.5613C21.4104 42.8303 26.7205 44.0297 32 44.0297C37.2795 44.0297 42.5896 42.8303 47.3566 40.5614C52.1236 38.2926 56.403 34.9273 59.7323 30.8299L61.2761 28.9298L58.0569 36.8316C53.7206 47.4749 43.4926 54.3522 32 54.3522C29.2978 54.3522 26.6178 53.9653 24.0343 53.2026L23.4496 55.1827C26.2231 56.0016 29.0999 56.4167 32.0001 56.4167C38.0249 56.4167 43.8521 54.6398 48.8519 51.2779C53.8515 47.9162 57.6958 43.1901 59.9689 37.6106L63.6035 28.6892C63.8667 28.0431 64.0001 27.3618 64.0001 26.6643C64 25.6798 63.7294 24.7149 63.2175 23.8741ZM12.3229 8.8853C14.6305 5.0943 18.8211 2.73918 23.2593 2.73918C26.0114 2.73918 28.7395 3.64855 30.941 5.29968L32 6.09418L33.059 5.29993C35.2606 3.64868 37.9886 2.7393 40.7407 2.7393C45.179 2.7393 49.3695 5.09443 51.6771 8.88543L61.0658 24.3098L58.4893 21.9909C54.2848 18.2069 49.0956 15.8359 43.4827 15.1343L43.2267 17.1829C45.9875 17.5279 48.6374 18.3098 51.0985 19.4923C50.0574 19.8201 49.1576 20.4693 48.516 21.3234C47.5735 20.0687 46.0735 19.2554 44.387 19.2554C42.7004 19.2554 41.2004 20.0687 40.258 21.3236C39.3155 20.0687 37.8155 19.2554 36.129 19.2554C34.4424 19.2554 32.9424 20.0687 32 21.3236C31.0575 20.0687 29.5575 19.2554 27.871 19.2554C26.1844 19.2554 24.6844 20.0687 23.742 21.3236C22.7995 20.0687 21.2995 19.2554 19.613 19.2554C17.9264 19.2554 16.4264 20.0687 15.484 21.3236C14.9324 20.5891 14.1896 20.0066 13.3304 19.6492C17.0565 18.0461 21.1066 17.1908 25.2426 17.1908H35.097V15.1263H25.2425C17.0479 15.1263 9.16988 18.2674 3.23038 23.8231L12.3229 8.8853ZM47.4839 32.6748C47.4839 34.3823 46.0946 35.7716 44.3871 35.7716C42.6796 35.7716 41.2904 34.3823 41.2904 32.6748V29.5781H47.4839V32.6748ZM39.2257 32.6748C39.2257 34.3823 37.8365 35.7716 36.129 35.7716C34.4215 35.7716 33.0322 34.3823 33.0322 32.6748V29.5781H39.2257V32.6748ZM30.9678 32.6748C30.9678 34.3823 29.5785 35.7716 27.871 35.7716C26.1635 35.7716 24.7743 34.3823 24.7743 32.6748V29.5781H30.9678V32.6748ZM22.7096 32.6748C22.7096 34.3823 21.3204 35.7716 19.6129 35.7716C17.9054 35.7716 16.5161 34.3823 16.5161 32.6748V29.5781H22.7096V32.6748ZM8.25813 24.4167C8.25813 22.7092 9.64738 21.3199 11.3549 21.3199C13.0624 21.3199 14.4516 22.7092 14.4516 24.4167V27.5134H8.25813V24.4167ZM16.5161 24.4167C16.5161 22.7092 17.9054 21.3199 19.6129 21.3199C21.3204 21.3199 22.7096 22.7092 22.7096 24.4167V27.5134H16.5161V24.4167ZM24.7743 24.4167C24.7743 22.7092 26.1635 21.3199 27.871 21.3199C29.5785 21.3199 30.9678 22.7092 30.9678 24.4167V27.5134H24.7743V24.4167ZM33.0322 24.4167C33.0322 22.7092 34.4215 21.3199 36.129 21.3199C37.8365 21.3199 39.2257 22.7092 39.2257 24.4167V27.5134H33.0322V24.4167ZM41.2904 24.4167C41.2904 22.7092 42.6796 21.3199 44.3871 21.3199C46.0946 21.3199 47.4839 22.7092 47.4839 24.4167V27.5134H41.2904V24.4167ZM49.5484 24.4167C49.5484 22.7092 50.9376 21.3199 52.6451 21.3199C54.3526 21.3199 55.7419 22.7092 55.7419 24.4167V27.5134H49.5484V24.4167ZM3.43075 26.5257C4.30787 25.6067 5.23863 24.7492 6.21525 23.9553C6.20175 24.1074 6.19362 24.2609 6.19362 24.4166V27.5133C6.19362 27.8896 6.2965 28.2414 6.473 28.5456C6.2965 28.8497 6.19362 29.2016 6.19362 29.5778V29.9148C6.08575 29.7859 5.97637 29.6586 5.87012 29.5278L3.43075 26.5257ZM8.25813 32.1689V29.5779H14.4516V32.6747C14.4516 34.0311 13.5722 35.2099 12.3129 35.6179C10.8812 34.5836 9.525 33.4322 8.25813 32.1689ZM32 41.9651C25.6335 41.9651 19.5249 40.1934 14.271 36.9341C14.7382 36.6137 15.1483 36.2198 15.4855 35.7697C16.428 37.0234 17.9272 37.8361 19.613 37.8361C21.2996 37.8361 22.7996 37.0228 23.742 35.7679C24.6845 37.0228 26.1845 37.8361 27.871 37.8361C29.5576 37.8361 31.0576 37.0228 32 35.7679C32.9425 37.0228 34.4425 37.8361 36.129 37.8361C37.8156 37.8361 39.3156 37.0228 40.258 35.7679C41.2005 37.0228 42.7005 37.8361 44.387 37.8361C46.0726 37.8361 47.572 37.0236 48.5146 35.7698C48.8517 36.2201 49.2617 36.6139 49.7291 36.9342C44.4751 40.1934 38.3665 41.9651 32 41.9651ZM51.6871 35.6179C50.4277 35.2099 49.5484 34.0312 49.5484 32.6747V29.5779H55.7419V32.1689C54.475 33.4322 53.1186 34.5836 51.6871 35.6179ZM58.1299 29.5279C58.0236 29.6587 57.9144 29.7861 57.8064 29.9149V29.5781C57.8064 29.2018 57.7035 28.8499 57.527 28.5458C57.7035 28.2417 57.8064 27.8898 57.8064 27.5136V24.4168C57.8064 24.3264 57.8039 24.2368 57.7993 24.1476L60.5153 26.5921L58.1299 29.5279Z" fill="white"/>
</svg>
