<svg width="64" height="64" viewBox="0 0 64 64" fill="none" xmlns="http://www.w3.org/2000/svg">
<g clip-path="url(#clip0_453_5233)">
<path d="M47.7065 25.9982C49.9727 25.9973 52.225 26.3516 54.3815 27.0481C54.8512 26.0172 55.1921 24.9324 55.3965 23.8181C55.3965 23.8181 58.6765 5.06318 49.6765 1.71317C45.5208 0.188145 40.9742 0.098374 36.7615 1.45817C31.1949 3.16816 25.2432 3.16816 19.6765 1.45817C15.4639 0.098374 10.9172 0.188145 6.76149 1.71317C-2.23851 5.06317 1.04149 23.8181 1.04149 23.8181C1.53526 26.4038 2.71471 28.8094 4.45649 30.7832C4.85713 31.2335 5.14568 31.7722 5.29861 32.3552C5.45154 32.9383 5.46452 33.5492 5.33649 34.1382C4.20149 39.6132 2.58149 54.6881 11.5315 62.9231C11.8483 63.2066 12.2397 63.3935 12.6593 63.4619C13.0789 63.5303 13.5093 63.4773 13.8998 63.3091C14.2903 63.141 14.6245 62.8646 14.8631 62.5128C15.1017 62.1609 15.2348 61.7481 15.2465 61.3231C15.3415 57.7582 15.8915 52.5381 17.9615 47.8331C18.7356 46.0301 19.9778 44.4669 21.5594 43.3055C23.141 42.1442 25.0044 41.4269 26.9565 41.2281C28.3499 36.8152 31.1119 32.9604 34.8426 30.2222C38.5733 27.484 43.0788 26.0045 47.7065 25.9982ZM19.7965 13.4282C19.4669 13.3271 19.1604 13.162 18.8946 12.9425C18.6288 12.7229 18.4088 12.4531 18.2472 12.1486C17.9209 11.5335 17.8523 10.8139 18.0565 10.1482C18.2608 9.48253 18.7211 8.92523 19.3362 8.59892C19.9513 8.27261 20.6708 8.20402 21.3365 8.40824C25.8228 9.78818 30.6202 9.78818 35.1065 8.40824C35.7714 8.20659 36.4892 8.27675 37.1025 8.60336C37.7158 8.92997 38.1746 9.48639 38.3784 10.1507C38.5822 10.815 38.5143 11.533 38.1897 12.1473C37.8651 12.7616 37.3101 13.2223 36.6465 13.4282C33.9165 14.2659 31.077 14.6922 28.2215 14.6932C25.3659 14.6929 22.5263 14.2666 19.7965 13.4282Z" fill="white"/>
<path d="M47.7915 31.918C44.6765 31.918 41.6314 32.8417 39.0413 34.5723C36.4512 36.303 34.4325 38.7628 33.2404 41.6407C32.0483 44.5186 31.7364 47.6854 32.3441 50.7406C32.9519 53.7958 34.4519 56.6022 36.6546 58.8049C38.8573 61.0076 41.6636 62.5076 44.7188 63.1153C47.774 63.7231 50.9408 63.4111 53.8188 62.2191C56.6967 61.027 59.1565 59.0083 60.8872 56.4182C62.6178 53.8281 63.5415 50.783 63.5415 47.668C63.5418 45.5996 63.1346 43.5514 62.3431 41.6404C61.5517 39.7294 60.3916 37.993 58.929 36.5305C57.4664 35.0679 55.7301 33.9078 53.8191 33.1163C51.9081 32.3249 49.8599 31.9177 47.7915 31.918ZM55.1115 51.2313H51.3549V54.988C51.3548 55.933 50.9794 56.8394 50.3112 57.5076C49.6429 58.1758 48.7366 58.5513 47.7916 58.5513C46.8465 58.5513 45.9401 58.1758 45.2718 57.5076C44.6036 56.8393 44.2282 55.933 44.2281 54.988V51.2313H40.4715C39.5265 51.2313 38.6201 50.8558 37.9519 50.1876C37.2836 49.5193 36.9082 48.613 36.9082 47.6679C36.9082 46.7229 37.2836 45.8165 37.9519 45.1483C38.6201 44.48 39.5265 44.1046 40.4715 44.1046H44.2282V40.348C44.2282 39.4029 44.6036 38.4966 45.2718 37.8283C45.9401 37.1601 46.8464 36.7846 47.7915 36.7846C48.7365 36.7846 49.643 37.16 50.3112 37.8283C50.9795 38.4966 51.3549 39.4029 51.3549 40.348V44.1046H55.1115C56.0566 44.1046 56.9629 44.48 57.6312 45.1483C58.2994 45.8165 58.6749 46.7229 58.6749 47.6679C58.6749 48.613 58.2994 49.5193 57.6312 50.1876C56.9629 50.8558 56.0566 51.2313 55.1115 51.2313Z" fill="white"/>
</g>
<defs>
<clipPath id="clip0_453_5233">
<rect width="64" height="64" fill="white"/>
</clipPath>
</defs>
</svg>
