<svg width="64" height="64" viewBox="0 0 64 64" fill="none" xmlns="http://www.w3.org/2000/svg">
<g clip-path="url(#clip0_512_4792)">
<path d="M28 55.6625V40.4375L16.2125 50.075C19.475 52.925 23.525 54.9125 28 55.6625ZM11.15 43.8875L28 30.1V8.325C16.65 10.2375 8 20.1125 8 32C8 36.325 9.15 40.3875 11.15 43.8875ZM47.7875 50.075L36 40.4375V55.6625C40.4625 54.9125 44.5125 52.925 47.7875 50.075ZM52.8625 43.8875C54.8625 40.3875 56.0125 36.325 56.0125 32C56.0125 20.1125 47.3625 10.2375 36.0125 8.3375V30.1125L52.85 43.8875H52.8625ZM0 32C0 23.5131 3.37142 15.3737 9.37258 9.37258C15.3737 3.37142 23.5131 0 32 0C40.4869 0 48.6263 3.37142 54.6274 9.37258C60.6286 15.3737 64 23.5131 64 32C64 40.4869 60.6286 48.6263 54.6274 54.6274C48.6263 60.6286 40.4869 64 32 64C23.5131 64 15.3737 60.6286 9.37258 54.6274C3.37142 48.6263 0 40.4869 0 32Z" fill="white"/>
</g>
<defs>
<clipPath id="clip0_512_4792">
<rect width="64" height="64" fill="white"/>
</clipPath>
</defs>
</svg>
