<svg width="19" height="19" viewBox="0 0 19 19" fill="none" xmlns="http://www.w3.org/2000/svg">
<path d="M17.5808 0.502441H1.1246C0.560941 0.502441 0.104004 0.959378 0.104004 1.52304V17.9792C0.104004 18.5429 0.560941 18.9998 1.1246 18.9998H17.5808C18.1444 18.9998 18.6013 18.5429 18.6013 17.9792V1.52304C18.6013 0.959378 18.1444 0.502441 17.5808 0.502441Z" fill="#3D5A98"/>
<path d="M10.5463 16.8713V10.2483H12.7689L13.1013 7.66739H10.5463V6.01997C10.5463 5.27285 10.7544 4.76273 11.8252 4.76273H13.1923V2.45056C12.5303 2.38169 11.8651 2.34889 11.1995 2.35229C9.23128 2.35229 7.87577 3.55173 7.87577 5.76418V7.66739H5.6532V10.2483H7.87577V16.8713H10.5463Z" fill="white"/>
</svg>
