<svg width="20" height="19" viewBox="0 0 20 19" fill="none" xmlns="http://www.w3.org/2000/svg">
<g clip-path="url(#clip0_826_2924)">
<path d="M7.34598 1.11078C5.49781 1.75193 3.90395 2.96885 2.79851 4.58279C1.69308 6.19674 1.13433 8.12264 1.20435 10.0776C1.27436 12.0326 1.96945 13.9136 3.18752 15.4443C4.40558 16.975 6.08241 18.0748 7.97171 18.5821C9.50341 18.9773 11.1082 18.9947 12.6481 18.6327C14.0431 18.3193 15.3328 17.6491 16.3909 16.6876C17.4922 15.6563 18.2916 14.3443 18.7031 12.8927C19.1504 11.3142 19.2299 9.65414 18.9357 8.04006H10.3345V11.608H15.3157C15.2162 12.1771 15.0028 12.7202 14.6885 13.2049C14.3741 13.6896 13.9652 14.1059 13.4862 14.4289C12.878 14.8312 12.1923 15.102 11.4732 15.2237C10.752 15.3578 10.0123 15.3578 9.29109 15.2237C8.56014 15.0726 7.86868 14.7709 7.26072 14.3378C6.28405 13.6465 5.5507 12.6643 5.16532 11.5314C4.77343 10.3774 4.77343 9.12621 5.16532 7.97214C5.43964 7.16319 5.89312 6.42665 6.49193 5.81749C7.17718 5.10757 8.04474 4.60013 8.99941 4.35081C9.95408 4.1015 10.959 4.11997 11.9038 4.40417C12.642 4.63075 13.3169 5.02663 13.875 5.56026C14.4366 5.00148 14.9973 4.44126 15.5571 3.8796C15.8461 3.57757 16.1611 3.29 16.4458 2.98074C15.594 2.18807 14.5942 1.57127 13.5036 1.16569C11.5176 0.44457 9.34453 0.425191 7.34598 1.11078Z" fill="white"/>
<path d="M7.3459 1.11099C9.34429 0.424939 11.5173 0.443808 13.5035 1.16446C14.5943 1.5728 15.5937 2.19256 16.4443 2.98818C16.1553 3.29744 15.8503 3.58646 15.5555 3.88704C14.9948 4.44678 14.4346 5.00459 13.8749 5.56047C13.3169 5.02685 12.6419 4.63097 11.9038 4.40439C10.9592 4.11918 9.95434 4.09965 8.99942 4.34795C8.0445 4.59624 7.17641 5.10275 6.4904 5.81192C5.8916 6.42108 5.43811 7.15763 5.16379 7.96657L2.16809 5.64718C3.24037 3.52079 5.09696 1.89427 7.3459 1.11099Z" fill="#E33629"/>
<path d="M1.37316 7.94469C1.53417 7.14669 1.80149 6.3739 2.16797 5.64697L5.16367 7.97215C4.77178 9.12622 4.77178 10.3774 5.16367 11.5314C4.16558 12.3022 3.16702 13.0767 2.16797 13.8552C1.25054 12.029 0.970744 9.94833 1.37316 7.94469Z" fill="#F8BD00"/>
<path d="M10.3344 8.03857H18.9357C19.2299 9.65266 19.1503 11.3127 18.703 12.8912C18.2915 14.3428 17.4922 15.6548 16.3909 16.6861C15.4241 15.9317 14.453 15.1832 13.4862 14.4288C13.9655 14.1055 14.3746 13.6888 14.689 13.2036C15.0034 12.7184 15.2165 12.1747 15.3157 11.6051H10.3344C10.333 10.4172 10.3344 9.2279 10.3344 8.03857Z" fill="#587DBD"/>
<path d="M2.16669 13.855C3.16574 13.0843 4.1643 12.3097 5.16239 11.5312C5.54853 12.6645 6.28293 13.6467 7.26068 14.3376C7.87053 14.7687 8.56349 15.0679 9.29539 15.2163C10.0166 15.3504 10.7563 15.3504 11.4775 15.2163C12.1966 15.0945 12.8823 14.8238 13.4905 14.4215C14.4573 15.1758 15.4284 15.9244 16.3952 16.6787C15.3372 17.6408 14.0475 18.3115 12.6524 18.6253C11.1125 18.9873 9.50771 18.9699 7.97601 18.5747C6.76458 18.2512 5.63302 17.681 4.65227 16.8998C3.61419 16.0757 2.76634 15.037 2.16669 13.855Z" fill="#319F43"/>
</g>
<defs>
<clipPath id="clip0_826_2924">
<rect width="18.4973" height="18.4973" fill="white" transform="translate(0.902161 0.502441)"/>
</clipPath>
</defs>
</svg>
