<svg width="19" height="19" viewBox="0 0 19 19" fill="none" xmlns="http://www.w3.org/2000/svg">
<g clip-path="url(#clip0_826_2936)">
<path d="M14.2937 0.502441H4.46703C2.0727 0.502441 0.131714 2.44343 0.131714 4.83776V14.6645C0.131714 17.0588 2.0727 18.9998 4.46703 18.9998H14.2937C16.6881 18.9998 18.6291 17.0588 18.6291 14.6645V4.83776C18.6291 2.44343 16.6881 0.502441 14.2937 0.502441Z" fill="url(#paint0_radial_826_2936)"/>
<path d="M14.2937 0.502441H4.46703C2.0727 0.502441 0.131714 2.44343 0.131714 4.83776V14.6645C0.131714 17.0588 2.0727 18.9998 4.46703 18.9998H14.2937C16.6881 18.9998 18.6291 17.0588 18.6291 14.6645V4.83776C18.6291 2.44343 16.6881 0.502441 14.2937 0.502441Z" fill="url(#paint1_radial_826_2936)"/>
<path d="M9.38114 2.52539C7.41884 2.52539 7.17252 2.53399 6.40184 2.56903C5.63261 2.60429 5.10753 2.72604 4.64814 2.90473C4.17284 3.08927 3.76973 3.33617 3.36813 3.73791C2.96618 4.13957 2.71928 4.54269 2.53416 5.01776C2.35497 5.47731 2.23308 6.0026 2.19847 6.77147C2.164 7.54222 2.15497 7.78861 2.15497 9.75099C2.15497 11.7134 2.16364 11.9589 2.19861 12.7296C2.23402 13.4988 2.35577 14.0239 2.53431 14.4833C2.71899 14.9586 2.96589 15.3617 3.36763 15.7633C3.76915 16.1652 4.17226 16.4127 4.6472 16.5972C5.10696 16.7759 5.63211 16.8977 6.40119 16.9329C7.17194 16.968 7.41804 16.9766 9.38028 16.9766C11.3428 16.9766 11.5883 16.968 12.359 16.9329C13.1282 16.8977 13.6539 16.7759 14.1136 16.5972C14.5887 16.4127 14.9913 16.1652 15.3927 15.7633C15.7947 15.3617 16.0415 14.9586 16.2267 14.4835C16.4043 14.0239 16.5262 13.4987 16.5624 12.7297C16.597 11.959 16.606 11.7134 16.606 9.75099C16.606 7.78861 16.597 7.54236 16.5624 6.77162C16.5262 6.00239 16.4043 5.47738 16.2267 5.01798C16.0415 4.54269 15.7947 4.13957 15.3927 3.73791C14.9908 3.33602 14.5889 3.08913 14.1132 2.9048C13.6526 2.72604 13.1272 2.60422 12.358 2.56903C11.5872 2.53399 11.3419 2.52539 9.3789 2.52539H9.38114ZM8.73294 3.8275C8.92536 3.82721 9.14003 3.8275 9.38114 3.8275C11.3104 3.8275 11.539 3.83444 12.3009 3.86905C13.0054 3.90128 13.3878 4.01898 13.6425 4.1179C13.9797 4.24882 14.2201 4.4054 14.4728 4.65837C14.7257 4.91126 14.8822 5.15209 15.0135 5.4893C15.1124 5.74364 15.2303 6.12601 15.2624 6.8305C15.297 7.59222 15.3045 7.82098 15.3045 9.74933C15.3045 11.6777 15.297 11.9065 15.2624 12.6681C15.2301 13.3726 15.1124 13.755 15.0135 14.0094C14.8826 14.3466 14.7257 14.5867 14.4728 14.8395C14.2199 15.0924 13.9798 15.2489 13.6425 15.3799C13.3881 15.4792 13.0054 15.5967 12.3009 15.6289C11.5392 15.6635 11.3104 15.671 9.38114 15.671C7.45178 15.671 7.2231 15.6635 6.46145 15.6289C5.75696 15.5964 5.37459 15.4787 5.11967 15.3797C4.78253 15.2487 4.54163 15.0922 4.28874 14.8393C4.03584 14.5865 3.87934 14.3462 3.74805 14.0088C3.64913 13.7544 3.53129 13.3721 3.4992 12.6676C3.46459 11.9059 3.45766 11.6771 3.45766 9.74752C3.45766 7.81794 3.46459 7.59041 3.4992 6.8287C3.53143 6.12421 3.64913 5.74183 3.74805 5.48713C3.87905 5.14992 4.03584 4.90909 4.28881 4.6562C4.54178 4.4033 4.78253 4.24673 5.11975 4.11551C5.37445 4.01616 5.75696 3.89875 6.46145 3.86638C7.12801 3.83625 7.38632 3.82721 8.73294 3.8257V3.8275ZM13.2381 5.02723C12.7594 5.02723 12.3711 5.41524 12.3711 5.894C12.3711 6.37269 12.7594 6.76107 13.2381 6.76107C13.7168 6.76107 14.1052 6.37269 14.1052 5.894C14.1052 5.41531 13.7168 5.02694 13.2381 5.02694V5.02723ZM9.38114 6.04032C7.33198 6.04032 5.67055 7.70176 5.67055 9.75099C5.67055 11.8002 7.33198 13.4609 9.38114 13.4609C11.4304 13.4609 13.0912 11.8002 13.0912 9.75099C13.0912 7.70183 11.4302 6.04032 9.381 6.04032H9.38114ZM9.38114 7.34243C10.7113 7.34243 11.7897 8.4207 11.7897 9.75099C11.7897 11.0811 10.7113 12.1595 9.38114 12.1595C8.051 12.1595 6.97266 11.0811 6.97266 9.75099C6.97266 8.4207 8.05092 7.34243 9.38114 7.34243Z" fill="white"/>
</g>
<defs>
<radialGradient id="paint0_radial_826_2936" cx="0" cy="0" r="1" gradientUnits="userSpaceOnUse" gradientTransform="translate(5.04507 20.4244) rotate(-90) scale(18.3322 17.0504)">
<stop stop-color="#FFDD55"/>
<stop offset="0.1" stop-color="#FFDD55"/>
<stop offset="0.5" stop-color="#FF543E"/>
<stop offset="1" stop-color="#C837AB"/>
</radialGradient>
<radialGradient id="paint1_radial_826_2936" cx="0" cy="0" r="1" gradientUnits="userSpaceOnUse" gradientTransform="translate(-2.96666 1.8349) rotate(78.681) scale(8.19461 33.7785)">
<stop stop-color="#3771C8"/>
<stop offset="0.128" stop-color="#3771C8"/>
<stop offset="1" stop-color="#6600FF" stop-opacity="0"/>
</radialGradient>
<clipPath id="clip0_826_2936">
<rect width="18.4973" height="18.4973" fill="white" transform="translate(0.131714 0.502441)"/>
</clipPath>
</defs>
</svg>
