<svg width="138" height="138" viewBox="0 0 138 138" fill="none" xmlns="http://www.w3.org/2000/svg">
<g clip-path="url(#clip0_473_4587)">
<path d="M117.082 0.000976562H20.918C19.6429 0.000976562 18.6055 1.0384 18.6055 2.31354V8.8685C18.6055 9.98489 19.5105 10.89 20.6269 10.89C21.7433 10.89 22.6484 9.98489 22.6484 8.8685V4.04392H115.352V76.711C115.352 87.3817 109.237 96.6505 100.328 101.2C99.9576 100.75 99.3965 100.464 98.7682 100.464H42.9561C41.8397 100.464 40.9347 101.369 40.9347 102.486C40.9347 103.602 41.8397 104.507 42.9561 104.507H86.714C86.0378 104.906 85.5817 105.641 85.5817 106.482C85.5817 109.55 85.086 112.53 84.1273 115.348H42.9561C41.8397 115.348 40.9347 116.253 40.9347 117.369C40.9347 118.486 41.8397 119.391 42.9561 119.391H82.3692C81.5921 120.842 80.6827 122.236 79.6356 123.555C78.9413 124.429 79.0871 125.7 79.9615 126.395C80.8353 127.089 82.1072 126.944 82.8015 126.069C86.9113 120.894 89.2371 114.743 89.5802 108.186C100.179 107.618 109.404 101.79 114.685 93.272C111.3 113.619 95.1902 129.864 74.6968 133.287C74.9326 133.141 75.1665 132.991 75.3989 132.838C76.3317 132.225 76.5907 130.971 75.9773 130.039C75.3641 129.106 74.1105 128.847 73.1777 129.46C68.7148 132.394 63.5215 133.948 58.1562 133.958H22.6484V18.302C22.6484 17.1856 21.7433 16.2806 20.6269 16.2806C19.5105 16.2806 18.6055 17.1856 18.6055 18.302V135.688C18.6055 136.964 19.6429 138.001 20.918 138.001H117.082C118.357 138.001 119.395 136.964 119.395 135.688V2.31354C119.395 1.0384 118.357 0.000976562 117.082 0.000976562ZM86.8232 133.958C99.7296 128.597 109.98 118.363 115.352 105.429V133.958H86.8232Z" fill="white"/>
<path d="M35.5148 85.5811H31.7939C30.6775 85.5811 29.7725 86.4861 29.7725 87.6025C29.7725 88.7189 30.6775 89.624 31.7939 89.624H35.5148C36.6312 89.624 37.5363 88.7189 37.5363 87.6025C37.5363 86.4861 36.6312 85.5811 35.5148 85.5811Z" fill="white"/>
<path d="M100.79 87.6025C100.79 86.4861 99.885 85.5811 98.7684 85.5811H42.956C41.8397 85.5811 40.9346 86.4861 40.9346 87.6025C40.9346 88.7189 41.8397 89.624 42.956 89.624H98.7684C99.885 89.624 100.79 88.7189 100.79 87.6025Z" fill="white"/>
<path d="M42.9561 93.0225C41.8397 93.0225 40.9346 93.9275 40.9346 95.0439C40.9346 96.1603 41.8397 97.0654 42.9561 97.0654H72.7228C73.8395 97.0654 74.7443 96.1603 74.7443 95.0439C74.7443 93.9275 73.8395 93.0225 72.7228 93.0225H42.9561Z" fill="white"/>
<path d="M31.7939 104.507H35.5148C36.6312 104.507 37.5363 103.602 37.5363 102.485C37.5363 101.369 36.6312 100.464 35.5148 100.464H31.7939C30.6775 100.464 29.7725 101.369 29.7725 102.485C29.7725 103.602 30.6775 104.507 31.7939 104.507Z" fill="white"/>
<path d="M42.9561 111.949H61.5605C62.6768 111.949 63.5819 111.044 63.5819 109.928C63.5819 108.811 62.6768 107.906 61.5605 107.906H42.9561C41.8397 107.906 40.9346 108.811 40.9346 109.928C40.9346 111.044 41.8397 111.949 42.9561 111.949Z" fill="white"/>
<path d="M31.7939 119.391H35.5148C36.6312 119.391 37.5363 118.486 37.5363 117.369C37.5363 116.253 36.6312 115.348 35.5148 115.348H31.7939C30.6775 115.348 29.7725 116.253 29.7725 117.369C29.7725 118.486 30.6775 119.391 31.7939 119.391Z" fill="white"/>
<path d="M69.0022 126.832C70.1186 126.832 71.0237 125.927 71.0237 124.811C71.0237 123.694 70.1186 122.789 69.0022 122.789H42.9561C41.8397 122.789 40.9346 123.694 40.9346 124.811C40.9346 125.927 41.8397 126.832 42.9561 126.832H69.0022Z" fill="white"/>
<path d="M94.9379 20.5006C91.282 16.9075 86.4634 14.9133 81.3695 14.885C78.3796 14.8723 75.504 15.5111 72.8257 16.7949C70.3962 17.9598 67.6087 17.9598 65.1789 16.7949C62.5011 15.5111 59.6195 14.8715 56.635 14.885C51.5415 14.9133 46.7228 16.9075 43.0667 20.5006C39.4097 24.0943 37.333 28.8779 37.2189 33.9696C37.1224 38.2802 38.4038 42.3956 40.9247 45.8717C44.2246 50.4219 45.9689 55.6964 45.9689 61.1247V74.8478C45.9689 78.7713 49.161 81.9634 53.0845 81.9634C58.1854 81.9634 62.6504 78.3406 63.7013 73.3492L66.5416 59.8571H71.4632L74.3038 73.3492C75.3544 78.3406 79.8195 81.9634 84.9203 81.9634C88.8441 81.9634 92.0359 78.7713 92.0359 74.8478V73.0118C92.0359 71.8954 91.1311 70.9903 90.0144 70.9903C88.8978 70.9903 87.9929 71.8954 87.9929 73.0118V74.8478C87.9929 76.542 86.6146 77.9204 84.9203 77.9204C81.7202 77.9204 78.9192 75.6477 78.26 72.5164L75.5439 59.615C76.1759 59.2733 76.6053 58.6048 76.6053 57.8359V52.4156H82.0253C83.1419 52.4156 84.0468 51.5106 84.0468 50.3942V39.2313C84.0468 38.1149 83.1419 37.2099 82.0253 37.2099H76.6053V31.7896C76.6053 30.6732 75.7005 29.7681 74.5838 29.7681H63.421C62.3046 29.7681 61.3995 30.6732 61.3995 31.7896V37.2099H55.9793C54.8629 37.2099 53.9578 38.1149 53.9578 39.2313V50.3939C53.9578 51.5103 54.8629 52.4154 55.9793 52.4154H61.3995V57.8356C61.3995 58.6046 61.8289 59.273 62.4609 59.6148L59.7449 72.5164C59.0856 75.6477 56.2847 77.9204 53.0845 77.9204C51.3903 77.9204 50.0119 76.542 50.0119 74.8478V61.1247C50.0119 54.8382 48.0015 48.743 44.1976 43.4982C42.1998 40.7434 41.1845 37.4799 41.2608 34.0601C41.4465 25.7621 48.3532 18.974 56.6574 18.9279C59.0287 18.9142 61.3103 19.4239 63.4312 20.4405C66.9718 22.1377 71.0328 22.1377 74.5733 20.4405C76.6678 19.4363 78.9163 18.9276 81.2579 18.9276C89.6063 18.9276 96.5575 25.7346 96.7438 34.0599C96.82 37.4796 95.8047 40.7431 93.807 43.498C90.0034 48.7425 87.9927 54.8379 87.9927 61.1247V63.5779C87.9927 64.6943 88.8975 65.5994 90.0141 65.5994C91.1308 65.5994 92.0356 64.6943 92.0356 63.5779V61.1247C92.0356 55.6961 93.78 50.4217 97.0799 45.8715C99.6008 42.3953 100.882 38.2796 100.786 33.9693C100.672 28.8776 98.5952 24.0943 94.9379 20.5006ZM58.0008 48.3724V41.2528H63.421C64.5374 41.2528 65.4425 40.3477 65.4425 39.2313V33.8111H72.5624V39.2313C72.5624 40.3477 73.4672 41.2528 74.5838 41.2528H80.0038V48.3724H74.5838C73.4672 48.3724 72.5624 49.2775 72.5624 50.3939V55.8141H65.4425V50.3939C65.4425 49.2775 64.5374 48.3724 63.421 48.3724H58.0008Z" fill="white"/>
</g>
<defs>
<clipPath id="clip0_473_4587">
<rect width="138" height="138" fill="white" transform="translate(0 0.000976562)"/>
</clipPath>
</defs>
</svg>
