<svg width="381" height="343" viewBox="0 0 381 343" fill="none" xmlns="http://www.w3.org/2000/svg">
<path d="M380.328 163.372H0V342.231H380.328V163.372Z" fill="#221C20"/>
<path d="M5.56836 167.288V191.386L34.3304 167.288H5.56836Z" fill="#E6BA00"/>
<path d="M75.7044 167.288L5.56836 226.047V255.683L111.079 167.288H75.7044Z" fill="#E6BA00"/>
<path d="M152.451 167.288L5.56836 290.344V319.979L187.825 167.288H152.451Z" fill="#E6BA00"/>
<path d="M229.2 167.288L28.959 335.045H64.334L264.576 167.288H229.2Z" fill="#E6BA00"/>
<path d="M305.95 167.288L105.709 335.045H141.084L341.324 167.288H305.95Z" fill="#E6BA00"/>
<path d="M373.527 174.969L182.453 335.045H217.828L373.527 204.605V174.969Z" fill="#E6BA00"/>
<path d="M373.527 239.268L259.201 335.045H294.578L373.527 268.904V239.268Z" fill="#E6BA00"/>
<path d="M373.527 303.564L335.949 335.045H373.527V303.564Z" fill="#E6BA00"/>
<path d="M323.444 268.45C324.186 267.391 324.629 266.107 324.629 264.715V252.896C324.629 249.291 321.707 246.368 318.101 246.368H317.38C320.532 245.907 322.952 243.191 322.952 239.91V228.674C322.952 226.427 321.815 224.445 320.087 223.271C322.179 222.183 323.608 219.997 323.608 217.476V205.656C323.608 202.052 320.685 199.129 317.08 199.129H291.472C290.862 199.129 290.282 199.241 289.722 199.397C289.162 199.242 288.581 199.129 287.971 199.129H254.411C253.793 199.129 253.208 199.244 252.643 199.403C252.077 199.244 251.491 199.129 250.873 199.129H235.515C232.845 199.129 230.56 200.735 229.548 203.03C228.294 202.05 226.846 201.174 225.198 200.417C221.542 198.739 217.196 197.89 212.279 197.89C207.704 197.89 203.649 198.682 200.223 200.251C196.93 201.758 194.352 203.862 192.52 206.51C190.245 203.603 187.33 201.596 183.832 200.538C180.694 199.59 176.478 199.129 170.945 199.129H155.625C154.651 199.129 153.736 199.356 152.907 199.738C152.079 199.356 151.164 199.129 150.191 199.129H124.583C124.064 199.129 123.569 199.206 123.086 199.318C122.588 199.198 122.076 199.129 121.555 199.129H106.635C105.214 199.129 103.888 199.586 102.807 200.371C101.727 199.588 100.402 199.129 98.9788 199.129H83.0298C81.6558 199.129 80.3728 199.558 79.3108 200.292C78.2528 199.558 76.9688 199.129 75.5918 199.129H60.6718C58.8098 199.129 57.0358 199.925 55.7968 201.317C54.5598 202.707 53.9718 204.563 54.1888 206.412L61.0628 265.471C61.1238 265.985 61.2588 266.469 61.4278 266.937H60.5758C56.9718 266.937 54.0488 269.86 54.0488 273.465V287.237C54.0488 291.07 54.1478 292.417 54.2348 293.162C54.4598 295.084 55.1688 296.891 56.3438 298.54C57.5698 300.253 59.2868 301.597 61.4488 302.53C63.3318 303.345 65.4418 303.757 67.7208 303.757C69.8438 303.757 71.7938 303.391 73.5188 302.666C73.6168 302.624 73.7038 302.569 73.7998 302.526C74.6918 302.984 75.6908 303.269 76.7628 303.269H81.8228C82.3658 303.269 82.8948 303.203 83.4008 303.076C83.9058 303.203 84.4328 303.269 84.9718 303.269H90.2768C90.6928 303.269 91.0978 303.222 91.4928 303.147C91.8878 303.222 92.2918 303.269 92.7078 303.269H100.342C102.307 303.269 103.785 303.145 104.992 302.88C105.373 302.796 105.74 302.688 106.1 302.571C106.972 303.004 107.941 303.269 108.98 303.269H119.476C119.774 303.269 120.059 303.219 120.346 303.181C120.632 303.219 120.915 303.269 121.214 303.269H127.267C127.58 303.269 127.887 303.248 128.189 303.205C128.488 303.248 128.796 303.269 129.109 303.269H134.728C136.843 303.269 138.703 302.248 139.896 300.69C140.463 301.164 141.082 301.593 141.755 301.967C143.884 303.155 146.429 303.757 149.321 303.757C152.303 303.757 154.952 303.02 157.189 301.561C157.245 301.526 157.293 301.488 157.345 301.452C158.035 301.914 158.761 302.329 159.556 302.656C161.335 303.387 163.297 303.757 165.393 303.757C167.602 303.757 169.641 303.356 171.461 302.563C171.513 302.54 171.56 302.51 171.611 302.484C172.523 302.968 173.547 303.268 174.65 303.268H179.711C180.254 303.268 180.784 303.202 181.288 303.075C181.795 303.202 182.321 303.268 182.859 303.268H188.166C189.216 303.268 190.193 302.997 191.071 302.558C192.911 303.339 194.96 303.756 197.207 303.756C199.66 303.756 201.916 303.272 203.906 302.32C204.12 302.217 204.301 302.091 204.504 301.98C205.586 302.779 206.913 303.268 208.363 303.268H214.416C215.297 303.268 216.136 303.088 216.902 302.772C217.67 303.088 218.508 303.268 219.39 303.268H225.442C225.754 303.268 226.062 303.247 226.363 303.204C226.663 303.247 226.97 303.268 227.283 303.268H232.905C234.009 303.268 235.032 302.968 235.945 302.484C235.976 302.499 236.004 302.518 236.036 302.53C237.916 303.345 240.027 303.757 242.307 303.757C244.43 303.757 246.381 303.391 248.105 302.666C248.841 302.357 249.512 301.968 250.153 301.541C250.38 301.688 250.604 301.834 250.843 301.967C252.97 303.155 255.517 303.757 258.407 303.757C261.276 303.757 263.824 303.058 266.009 301.709C267.142 302.668 268.591 303.269 270.197 303.269H276.248C277.131 303.269 277.969 303.089 278.736 302.773C279.505 303.089 280.341 303.269 281.224 303.269H287.276C288.387 303.269 289.416 302.967 290.328 302.477C290.455 302.534 290.568 302.605 290.697 302.657C292.476 303.388 294.44 303.758 296.534 303.758C298.744 303.758 300.783 303.357 302.601 302.564C302.656 302.541 302.701 302.511 302.754 302.485C303.665 302.969 304.689 303.269 305.792 303.269H310.853C311.396 303.269 311.925 303.203 312.431 303.076C312.936 303.203 313.462 303.269 314.002 303.269H319.307C322.914 303.269 325.833 300.346 325.833 296.741V273.466C325.836 271.437 324.895 269.648 323.444 268.45Z" fill="#E6BA00"/>
<path d="M121.557 205.657L114.719 264.716H95.5448C93.7888 255.643 92.2388 245.319 90.8968 233.746C90.2838 238.708 88.8558 249.032 86.6138 264.716H67.5478L60.6738 205.657H75.5938L77.2158 226.264L78.7848 246.185C79.3508 235.876 80.7668 222.367 83.0318 205.658H98.9788C99.1908 207.385 99.7488 213.878 100.654 225.138L102.35 247.609C103.223 233.313 104.652 219.33 106.636 205.659H121.557V205.657Z" fill="#221C20"/>
<path d="M124.585 205.657H150.192V217.476H139.942V228.675H149.536V239.911H139.942V252.897H151.213V264.716H124.584L124.585 205.657Z" fill="#221C20"/>
<path d="M155.627 205.657H170.947C175.787 205.657 179.453 206.034 181.946 206.787C184.438 207.541 186.451 209.065 187.983 211.362C189.515 213.659 190.281 217.359 190.281 222.463C190.281 225.914 189.74 228.32 188.658 229.681C187.575 231.042 185.441 232.087 182.256 232.816C185.807 233.619 188.214 234.951 189.479 236.813C190.744 238.674 191.376 241.528 191.376 245.373V250.848C191.376 254.839 190.92 257.795 190.008 259.717C189.096 261.64 187.643 262.953 185.649 263.659C183.655 264.365 179.569 264.718 173.392 264.718H155.627V205.657ZM170.985 215.761V228.893C171.641 228.869 172.152 228.856 172.517 228.856C174.024 228.856 174.985 228.485 175.399 227.743C175.812 227.002 176.019 224.88 176.019 221.378C176.019 219.53 175.848 218.235 175.508 217.493C175.167 216.752 174.724 216.284 174.176 216.089C173.629 215.895 172.565 215.786 170.985 215.761ZM170.985 238.086V254.611C173.149 254.538 174.529 254.198 175.125 253.59C175.721 252.983 176.02 251.487 176.02 249.103V243.595C176.02 241.066 175.752 239.534 175.217 238.999C174.681 238.463 173.27 238.159 170.985 238.086Z" fill="#221C20"/>
<path d="M229.424 223.531H215.16V219.154C215.16 217.111 214.977 215.81 214.613 215.251C214.248 214.692 213.639 214.412 212.789 214.412C211.864 214.412 211.166 214.789 210.691 215.544C210.217 216.298 209.98 217.442 209.98 218.975C209.98 220.946 210.246 222.431 210.78 223.428C211.289 224.426 212.735 225.63 215.12 227.039C221.956 231.097 226.262 234.427 228.037 237.029C229.812 239.632 230.7 243.826 230.7 249.614C230.7 253.822 230.208 256.922 229.223 258.916C228.239 260.911 226.335 262.583 223.514 263.932C220.693 265.282 217.409 265.957 213.665 265.957C209.555 265.957 206.046 265.179 203.141 263.622C200.235 262.066 198.332 260.083 197.432 257.676C196.532 255.269 196.082 251.852 196.082 247.425V243.558H210.345V250.744C210.345 252.957 210.546 254.38 210.948 255.012C211.349 255.644 212.06 255.96 213.082 255.96C214.103 255.96 214.863 255.559 215.362 254.756C215.86 253.953 216.109 252.762 216.109 251.181C216.109 247.704 215.635 245.43 214.687 244.36C213.713 243.29 211.318 241.503 207.5 238.998C203.682 236.469 201.152 234.633 199.912 233.49C198.672 232.347 197.644 230.766 196.83 228.748C196.015 226.73 195.607 224.152 195.607 221.015C195.607 216.492 196.185 213.184 197.34 211.093C198.494 209.002 200.361 207.366 202.94 206.187C205.517 205.008 208.631 204.418 212.278 204.418C216.266 204.418 219.665 205.063 222.474 206.351C225.283 207.641 227.143 209.264 228.055 211.221C228.967 213.179 229.423 216.505 229.423 221.198V223.531H229.424Z" fill="#221C20"/>
<path d="M250.873 205.657V264.716H235.516V205.657H250.873Z" fill="#221C20"/>
<path d="M287.972 205.657V217.476H278.852V264.716H263.495V217.476H254.412V205.657H287.972Z" fill="#221C20"/>
<path d="M291.475 205.657H317.083V217.476H306.833V228.675H316.427V239.911H306.833V252.897H318.104V264.716H291.475V205.657Z" fill="#221C20"/>
<path d="M74.4212 273.464V289.019C74.4212 290.783 74.3632 292.022 74.2482 292.735C74.1342 293.449 73.7932 294.182 73.2272 294.935C72.6622 295.688 71.9162 296.258 70.9922 296.646C70.0672 297.034 68.9762 297.228 67.7212 297.228C66.3312 297.228 65.1052 296.998 64.0402 296.538C62.9772 296.078 62.1812 295.479 61.6532 294.741C61.1272 294.003 60.8142 293.224 60.7182 292.405C60.6222 291.586 60.5742 289.863 60.5742 287.237V273.465H66.6272V290.918C66.6272 291.934 66.6822 292.583 66.7922 292.866C66.9022 293.149 67.1252 293.29 67.4612 293.29C67.8442 293.29 68.0912 293.134 68.2012 292.823C68.3112 292.511 68.3662 291.776 68.3662 290.616V273.465H74.4212V273.464Z" fill="#221C20"/>
<path d="M90.2796 273.464V296.739H84.9746L81.8266 286.158V296.739H76.7656V273.464H81.8266L85.2196 283.944V273.464H90.2796Z" fill="#221C20"/>
<path d="M92.709 273.464H97.237C100.16 273.464 102.136 273.598 103.167 273.866C104.197 274.135 104.981 274.576 105.518 275.189C106.055 275.802 106.39 276.485 106.525 277.238C106.659 277.99 106.726 279.468 106.726 281.673V289.824C106.726 291.913 106.627 293.31 106.431 294.015C106.235 294.719 105.892 295.27 105.404 295.668C104.915 296.065 104.311 296.343 103.593 296.501C102.874 296.659 101.791 296.738 100.344 296.738H92.71L92.709 273.464ZM98.761 277.446V292.757C99.633 292.757 100.17 292.582 100.371 292.233C100.572 291.883 100.673 290.932 100.673 289.379V280.337C100.673 279.283 100.64 278.607 100.572 278.31C100.505 278.013 100.351 277.795 100.112 277.656C99.874 277.516 99.423 277.446 98.761 277.446Z" fill="#221C20"/>
<path d="M108.982 273.464H119.074V278.122H115.034V282.535H118.815V286.963H115.034V292.081H119.476V296.739H108.982V273.464Z" fill="#221C20"/>
<path d="M121.217 273.464H125.501C128.356 273.464 130.29 273.574 131.302 273.795C132.313 274.016 133.137 274.579 133.775 275.484C134.412 276.39 134.731 277.835 134.731 279.819C134.731 281.63 134.506 282.847 134.055 283.47C133.604 284.093 132.718 284.467 131.395 284.592C132.593 284.889 133.399 285.287 133.811 285.785C134.222 286.284 134.479 286.741 134.58 287.158C134.681 287.575 134.731 288.723 134.731 290.601V296.74H129.11V289.006C129.11 287.76 129.011 286.988 128.815 286.691C128.619 286.394 128.103 286.246 127.269 286.246V296.741H121.217V273.464ZM127.269 277.446V282.621C127.95 282.621 128.426 282.528 128.7 282.341C128.973 282.154 129.11 281.548 129.11 280.522V279.243C129.11 278.505 128.978 278.021 128.714 277.791C128.451 277.561 127.969 277.446 127.269 277.446Z" fill="#221C20"/>
<path d="M156.397 283.599H150.344V279.554C150.344 278.378 150.28 277.644 150.15 277.352C150.021 277.06 149.736 276.914 149.295 276.914C148.797 276.914 148.481 277.092 148.347 277.446C148.212 277.801 148.146 278.567 148.146 279.746V290.557C148.146 291.688 148.212 292.426 148.347 292.771C148.481 293.116 148.783 293.289 149.252 293.289C149.702 293.289 149.997 293.116 150.137 292.77C150.276 292.424 150.345 291.612 150.345 290.335V287.41H156.398V288.317C156.398 290.726 156.227 292.435 155.887 293.443C155.547 294.451 154.794 295.334 153.63 296.092C152.465 296.85 151.03 297.229 149.324 297.229C147.551 297.229 146.09 296.908 144.939 296.266C143.789 295.624 143.027 294.735 142.653 293.6C142.279 292.464 142.092 290.756 142.092 288.474V281.674C142.092 279.997 142.15 278.739 142.265 277.9C142.379 277.062 142.722 276.254 143.292 275.478C143.862 274.702 144.653 274.091 145.664 273.645C146.676 273.199 147.837 272.977 149.15 272.977C150.933 272.977 152.404 273.322 153.564 274.011C154.723 274.7 155.485 275.559 155.849 276.588C156.213 277.617 156.396 279.217 156.396 281.39L156.397 283.599Z" fill="#221C20"/>
<path d="M172.398 287.093C172.398 289.431 172.342 291.087 172.232 292.06C172.122 293.033 171.777 293.922 171.197 294.727C170.617 295.532 169.834 296.15 168.846 296.581C167.86 297.012 166.709 297.228 165.396 297.228C164.15 297.228 163.032 297.024 162.04 296.617C161.048 296.21 160.25 295.598 159.646 294.784C159.041 293.969 158.682 293.083 158.568 292.124C158.453 291.165 158.395 289.488 158.395 287.092V283.109C158.395 280.771 158.45 279.115 158.56 278.142C158.67 277.169 159.015 276.28 159.595 275.475C160.175 274.67 160.958 274.052 161.946 273.621C162.933 273.189 164.084 272.974 165.396 272.974C166.642 272.974 167.761 273.178 168.753 273.585C169.745 273.993 170.543 274.604 171.147 275.418C171.751 276.233 172.11 277.12 172.225 278.078C172.34 279.036 172.398 280.714 172.398 283.11V287.093ZM166.345 279.444C166.345 278.361 166.286 277.669 166.165 277.367C166.045 277.065 165.799 276.914 165.425 276.914C165.109 276.914 164.866 277.036 164.698 277.281C164.53 277.526 164.447 278.247 164.447 279.445V290.314C164.447 291.666 164.502 292.499 164.612 292.815C164.722 293.131 164.978 293.29 165.382 293.29C165.793 293.29 166.057 293.108 166.172 292.744C166.287 292.38 166.345 291.512 166.345 290.142V279.444Z" fill="#221C20"/>
<path d="M188.166 273.464V296.739H182.861L179.713 286.158V296.739H174.652V273.464H179.713L183.106 283.944V273.464H188.166Z" fill="#221C20"/>
<path d="M203.42 280.508H197.799V278.783C197.799 277.978 197.727 277.465 197.583 277.244C197.439 277.024 197.2 276.913 196.864 276.913C196.5 276.913 196.224 277.062 196.038 277.359C195.85 277.656 195.758 278.107 195.758 278.711C195.758 279.488 195.862 280.073 196.072 280.466C196.273 280.859 196.843 281.334 197.783 281.889C200.477 283.488 202.174 284.801 202.874 285.826C203.573 286.851 203.923 288.505 203.923 290.786C203.923 292.444 203.73 293.666 203.341 294.452C202.953 295.238 202.203 295.897 201.091 296.429C199.98 296.961 198.686 297.227 197.209 297.227C195.59 297.227 194.207 296.92 193.061 296.307C191.916 295.694 191.166 294.912 190.811 293.964C190.457 293.015 190.28 291.669 190.28 289.924V288.4H195.901V291.232C195.901 292.105 195.98 292.665 196.138 292.914C196.296 293.163 196.576 293.288 196.979 293.288C197.381 293.288 197.681 293.13 197.877 292.813C198.073 292.497 198.172 292.027 198.172 291.404C198.172 290.033 197.984 289.137 197.611 288.715C197.227 288.293 196.283 287.589 194.779 286.602C193.274 285.605 192.277 284.882 191.788 284.431C191.3 283.98 190.895 283.358 190.574 282.562C190.253 281.766 190.092 280.75 190.092 279.514C190.092 277.731 190.32 276.428 190.776 275.604C191.231 274.78 191.967 274.135 192.982 273.67C193.999 273.205 195.225 272.973 196.663 272.973C198.235 272.973 199.574 273.227 200.681 273.735C201.788 274.243 202.521 274.883 202.88 275.654C203.239 276.426 203.419 277.737 203.419 279.586V280.508H203.42Z" fill="#221C20"/>
<path d="M218.013 273.464V278.122H214.419V296.74H208.366V278.122H204.787V273.464H218.013Z" fill="#221C20"/>
<path d="M219.393 273.464H223.677C226.532 273.464 228.466 273.574 229.478 273.795C230.489 274.016 231.313 274.579 231.951 275.484C232.588 276.39 232.907 277.835 232.907 279.819C232.907 281.63 232.681 282.847 232.231 283.47C231.78 284.093 230.894 284.467 229.571 284.592C230.769 284.889 231.575 285.287 231.987 285.785C232.398 286.284 232.655 286.741 232.756 287.158C232.856 287.575 232.907 288.723 232.907 290.601V296.74H227.286V289.006C227.286 287.76 227.187 286.988 226.991 286.691C226.795 286.394 226.279 286.246 225.445 286.246V296.741H219.393V273.464ZM225.445 277.446V282.621C226.126 282.621 226.602 282.528 226.876 282.341C227.149 282.154 227.286 281.548 227.286 280.522V279.243C227.286 278.505 227.154 278.021 226.89 277.791C226.626 277.561 226.145 277.446 225.445 277.446Z" fill="#221C20"/>
<path d="M249.008 273.464V289.019C249.008 290.783 248.95 292.022 248.835 292.735C248.721 293.449 248.38 294.182 247.814 294.935C247.249 295.688 246.504 296.258 245.579 296.646C244.654 297.034 243.563 297.228 242.308 297.228C240.918 297.228 239.692 296.998 238.627 296.538C237.563 296.078 236.768 295.479 236.24 294.741C235.714 294.003 235.401 293.224 235.305 292.405C235.209 291.586 235.162 289.863 235.162 287.237V273.465H241.215V290.918C241.215 291.934 241.27 292.583 241.38 292.866C241.49 293.149 241.713 293.29 242.049 293.29C242.432 293.29 242.679 293.134 242.789 292.823C242.899 292.511 242.954 291.776 242.954 290.616V273.465H249.008V273.464Z" fill="#221C20"/>
<path d="M265.485 283.599H259.432V279.554C259.432 278.378 259.368 277.644 259.238 277.352C259.109 277.06 258.824 276.914 258.383 276.914C257.885 276.914 257.569 277.092 257.435 277.446C257.3 277.801 257.234 278.567 257.234 279.746V290.557C257.234 291.688 257.3 292.426 257.435 292.771C257.569 293.116 257.871 293.289 258.34 293.289C258.79 293.289 259.085 293.116 259.225 292.77C259.364 292.424 259.433 291.612 259.433 290.335V287.41H265.486V288.317C265.486 290.726 265.315 292.435 264.975 293.443C264.635 294.451 263.882 295.334 262.718 296.092C261.553 296.85 260.118 297.229 258.412 297.229C256.639 297.229 255.178 296.908 254.027 296.266C252.877 295.624 252.115 294.735 251.741 293.6C251.367 292.464 251.18 290.756 251.18 288.474V281.674C251.18 279.997 251.238 278.739 251.353 277.9C251.467 277.062 251.81 276.254 252.38 275.478C252.95 274.702 253.741 274.091 254.752 273.645C255.764 273.199 256.925 272.977 258.238 272.977C260.021 272.977 261.492 273.322 262.652 274.011C263.811 274.7 264.573 275.559 264.937 276.588C265.301 277.617 265.484 279.217 265.484 281.39V283.599H265.485Z" fill="#221C20"/>
<path d="M279.845 273.464V278.122H276.251V296.74H270.198V278.122H266.619V273.464H279.845Z" fill="#221C20"/>
<path d="M287.279 273.464V296.739H281.227V273.464H287.279Z" fill="#221C20"/>
<path d="M303.54 287.093C303.54 289.431 303.484 291.087 303.374 292.06C303.264 293.033 302.919 293.922 302.339 294.727C301.759 295.532 300.976 296.15 299.988 296.581C299.002 297.012 297.851 297.228 296.538 297.228C295.292 297.228 294.174 297.024 293.182 296.617C292.19 296.21 291.392 295.598 290.788 294.784C290.183 293.969 289.824 293.083 289.71 292.124C289.595 291.165 289.537 289.488 289.537 287.092V283.109C289.537 280.771 289.592 279.115 289.702 278.142C289.812 277.169 290.157 276.28 290.737 275.475C291.317 274.67 292.1 274.052 293.088 273.621C294.075 273.189 295.226 272.974 296.538 272.974C297.784 272.974 298.903 273.178 299.895 273.585C300.887 273.993 301.685 274.604 302.289 275.418C302.893 276.233 303.252 277.12 303.367 278.078C303.482 279.036 303.54 280.714 303.54 283.11V287.093ZM297.487 279.444C297.487 278.361 297.427 277.669 297.307 277.367C297.187 277.065 296.941 276.914 296.567 276.914C296.251 276.914 296.008 277.036 295.84 277.281C295.672 277.526 295.589 278.247 295.589 279.445V290.314C295.589 291.666 295.644 292.499 295.754 292.815C295.864 293.131 296.12 293.29 296.524 293.29C296.935 293.29 297.199 293.108 297.314 292.744C297.429 292.38 297.487 291.512 297.487 290.142V279.444Z" fill="#221C20"/>
<path d="M319.309 273.464V296.739H314.004L310.856 286.158V296.739H305.795V273.464H310.856L314.249 283.944V273.464H319.309Z" fill="#221C20"/>
<path d="M199.936 179.336C199.936 184.657 195.623 188.97 190.301 188.97C184.98 188.97 180.666 184.656 180.666 179.336C180.666 174.015 184.979 169.701 190.301 169.701C195.624 169.702 199.936 174.015 199.936 179.336Z" fill="#4C434E"/>
<path d="M187.07 31.7969C162.514 31.7969 159.965 50.4459 159.965 54.1419C159.965 57.8369 165.953 117.978 165.953 117.978L170.622 122.889H206.492L210.15 118.472C210.15 118.472 217.149 57.0689 217.149 54.1419C217.149 51.2109 214.811 31.7969 187.07 31.7969Z" fill="#987400"/>
<path d="M189.97 31.5259C165.416 31.5259 162.867 50.1749 162.867 53.8699C162.867 57.5669 168.855 117.71 168.855 117.71L173.523 122.619H209.394L213.052 118.2C213.052 118.2 220.05 56.7989 220.05 53.8689C220.051 50.9409 217.717 31.5259 189.97 31.5259Z" fill="#825500"/>
<path d="M196.154 181.73C197.715 177.666 195.284 172.911 194.118 171.852C187.404 171.556 184.477 163.967 186.515 159.198C189.824 151.463 202.826 145.141 202.826 139.27C202.826 133.852 202.692 125.997 202.692 125.997H188.197C188.197 125.997 188.197 131.82 188.197 137.238C188.197 142.659 169.232 148.345 169.232 163.34C169.232 181.443 179.936 186.457 192.494 187.1C193.821 184.723 195.169 184.285 196.154 181.73Z" fill="#221C20"/>
<path d="M214.491 163.372C214.574 162.115 213.955 158.221 213.972 157.722C214.082 154.277 204.972 155.915 204.329 158.747C204.23 159.182 203.241 162.706 203.104 163.373C203.104 163.373 210.809 163.372 214.491 163.372Z" fill="#221C20"/>
<path d="M208.538 161.813C208.538 161.813 211.877 157.36 211.732 157.215C209.358 154.864 207.467 158.309 206.057 161.211L208.538 161.813Z" fill="#352E35"/>
<path d="M196.154 181.73C191.406 181.115 184.374 179.618 181.381 176.486C176.234 171.099 174.793 161.897 174.58 154.824C167.698 160.804 172.426 178.623 177.383 183.001C179.156 184.569 186.6 186.786 192.494 187.1C194.304 185.812 195.628 183.453 196.154 181.73Z" fill="#161013"/>
<path d="M192.16 127.194C194.924 127.194 197.729 127.117 200.471 127.257C201.257 131.165 203.163 139.544 199.79 142.65C199.661 139.836 201.255 135.181 199.797 132.534C198.287 129.784 194.572 130.15 192.579 128.031" fill="#352E35"/>
<path d="M219.505 0H213.914V53.221H219.505V0Z" fill="#221C20"/>
<path d="M211.376 0H205.783V53.221H211.376V0Z" fill="#221C20"/>
<path d="M184.417 0H178.826V53.221H184.417V0Z" fill="#221C20"/>
<path d="M176.287 0H170.695V53.221H176.287V0Z" fill="#221C20"/>
<path d="M216.529 28.636C215.847 29.593 214.833 29.863 213.914 29.691V53.221H219.505V24.938C218.467 26.134 217.45 27.345 216.529 28.636Z" fill="#0F090B"/>
<path d="M205.783 29.3592V53.2212H211.376V21.0132C210.176 24.2752 209.01 27.3052 205.783 29.3592Z" fill="#0F090B"/>
<path d="M178.826 31.3412V53.2202H184.417V28.0532C182.54 29.1152 180.673 30.1982 178.826 31.3412Z" fill="#0F090B"/>
<path d="M170.695 37.2928V53.2208H176.287V33.0098C174.4 34.3958 172.62 36.0058 170.695 37.2928Z" fill="#0F090B"/>
<path d="M193.578 35.542C169.022 35.542 166.471 54.191 166.471 57.887C166.471 61.584 172.459 121.726 172.459 121.726L177.129 126.637H212.999L216.655 122.217C216.655 122.217 223.655 60.816 223.655 57.886C223.656 54.956 221.32 35.542 193.578 35.542Z" fill="#E6BA00"/>
<path d="M170.091 84.1959C170.596 76.5759 171.023 68.8789 170.81 61.2399C170.644 55.3829 170.274 49.6139 171.866 44.0039C167.235 49.4519 166.471 55.8779 166.471 57.8859C166.471 59.7829 168.048 76.5559 169.586 92.4329C169.693 89.7059 169.906 86.9769 170.091 84.1959Z" fill="#E3A900"/>
<path d="M214.447 120.988C211.537 122.119 208.348 122.71 205.265 123.18C199.198 124.106 192.566 124.733 186.622 122.722C178.884 120.102 173.403 114.509 171.014 107.076C171.847 115.568 172.459 121.726 172.459 121.726L177.129 126.637H212.999L216.655 122.217C216.655 122.217 216.753 121.361 216.924 119.86C216.113 120.264 215.294 120.66 214.447 120.988Z" fill="#E3A900"/>
<path d="M193.911 41.5898C174.896 41.5898 172.922 57.7618 172.922 60.9658C172.922 64.1718 177.559 116.33 177.559 116.33L181.176 120.586H208.951L211.785 116.754C211.785 116.754 217.203 63.5058 217.203 60.9658C217.203 58.4268 215.393 41.5898 193.911 41.5898Z" fill="#BF8500"/>
<path d="M194.127 42.7261C175.589 42.7261 173.664 58.5311 173.664 61.6601C173.664 64.7941 178.185 115.763 178.185 115.763L181.709 119.924H208.786L211.545 116.179C211.545 116.179 216.833 64.1441 216.833 61.6601C216.834 59.1771 215.068 42.7261 194.127 42.7261Z" fill="#E3A900"/>
<path d="M188.861 113.785C181.265 109.04 178.601 101.909 177.622 93.3411C176.103 80.0711 174.946 66.7391 175.575 53.5391C173.978 57.0631 173.664 60.3971 173.664 61.6601C173.664 64.7941 178.185 115.763 178.185 115.763L181.709 119.924H208.786L211.462 116.296C203.701 117.311 195.527 117.947 188.861 113.785Z" fill="#D59800"/>
<path d="M204.025 62.919C204.025 67.869 200.013 71.881 195.065 71.881C190.113 71.881 186.102 67.869 186.102 62.919C186.102 57.97 190.113 53.957 195.065 53.957C200.013 53.957 204.025 57.97 204.025 62.919Z" fill="#825500"/>
<path d="M205.087 62.1119C205.087 67.0619 201.072 71.0729 196.125 71.0729C191.175 71.0729 187.162 67.0609 187.162 62.1119C187.162 57.1629 191.175 53.1519 196.125 53.1519C201.073 53.1519 205.087 57.1629 205.087 62.1119Z" fill="#524855"/>
<path d="M204.305 61.7309C204.305 65.4259 201.311 68.4219 197.617 68.4219C193.925 68.4219 190.932 65.4259 190.932 61.7309C190.932 58.0409 193.924 55.0449 197.617 55.0449C201.311 55.0449 204.305 58.0409 204.305 61.7309Z" fill="#685A6B"/>
<path d="M196.838 38.6762C196.838 39.7012 196.006 40.5292 194.983 40.5292C193.963 40.5292 193.133 39.7012 193.133 38.6762C193.133 37.6542 193.962 36.8252 194.983 36.8252C196.006 36.8252 196.838 37.6542 196.838 38.6762Z" fill="#D18C00"/>
<path d="M196.998 38.4702C196.998 39.4932 196.169 40.3232 195.144 40.3232C194.121 40.3232 193.293 39.4932 193.293 38.4702C193.293 37.4492 194.12 36.6172 195.144 36.6172C196.169 36.6182 196.998 37.4492 196.998 38.4702Z" fill="#685A6B"/>
<path d="M194.853 36.936C194.129 37.07 193.58 37.706 193.58 38.47C193.58 39.234 194.13 39.869 194.853 40.006V36.936Z" fill="#524855"/>
<path d="M195.543 36.9609V39.9809C196.213 39.8039 196.709 39.1969 196.709 38.4699C196.709 37.7459 196.212 37.1389 195.543 36.9609Z" fill="#524855"/>
<path d="M213.754 122.308C213.754 123.331 212.922 124.161 211.9 124.161C210.877 124.161 210.049 123.331 210.049 122.308C210.049 121.285 210.876 120.457 211.9 120.457C212.922 120.457 213.754 121.285 213.754 122.308Z" fill="#D18C00"/>
<path d="M213.915 122.102C213.915 123.126 213.084 123.954 212.06 123.954C211.037 123.954 210.209 123.126 210.209 122.102C210.209 121.08 211.037 120.25 212.06 120.25C213.084 120.25 213.915 121.079 213.915 122.102Z" fill="#685A6B"/>
<path d="M211.77 120.565C211.045 120.703 210.496 121.336 210.496 122.101C210.496 122.866 211.046 123.502 211.77 123.638V120.565Z" fill="#524855"/>
<path d="M212.461 120.591V123.612C213.131 123.435 213.623 122.829 213.623 122.101C213.624 121.377 213.131 120.769 212.461 120.591Z" fill="#524855"/>
<path d="M171.564 62.76C171.247 63.734 170.202 64.266 169.229 63.949C168.255 63.632 167.721 62.588 168.04 61.614C168.356 60.642 169.403 60.109 170.374 60.426C171.345 60.741 171.878 61.788 171.564 62.76Z" fill="#D18C00"/>
<path d="M171.779 62.6122C171.462 63.5852 170.416 64.1172 169.444 63.8022C168.468 63.4852 167.939 62.4402 168.255 61.4662C168.57 60.4952 169.615 59.9632 170.589 60.2782C171.563 60.5952 172.094 61.6402 171.779 62.6122Z" fill="#685A6B"/>
<path d="M170.218 60.491C169.486 60.394 168.767 60.829 168.531 61.557C168.294 62.284 168.619 63.056 169.265 63.409L170.218 60.491Z" fill="#524855"/>
<path d="M170.864 60.728L169.93 63.601C170.62 63.64 171.28 63.215 171.504 62.524C171.73 61.833 171.446 61.104 170.864 60.728Z" fill="#524855"/>
<path d="M221.651 63.6893C221.264 64.6353 220.183 65.0863 219.235 64.6983C218.289 64.3103 217.837 63.2283 218.225 62.2813C218.615 61.3353 219.696 60.8823 220.643 61.2723C221.589 61.6613 222.041 62.7433 221.651 63.6893Z" fill="#D18C00"/>
<path d="M221.879 63.5582C221.488 64.5042 220.408 64.9572 219.46 64.5672C218.516 64.1792 218.062 63.0972 218.452 62.1502C218.84 61.2062 219.921 60.7512 220.869 61.1412C221.814 61.5312 222.266 62.6122 221.879 63.5582Z" fill="#685A6B"/>
<path d="M220.48 61.3244C219.758 61.1734 219.01 61.5524 218.718 62.2604C218.43 62.9664 218.693 63.7634 219.313 64.1644L220.48 61.3244Z" fill="#524855"/>
<path d="M221.109 61.6104L219.961 64.4044C220.648 64.4964 221.334 64.1203 221.611 63.4473C221.887 62.7773 221.66 62.0294 221.109 61.6104Z" fill="#524855"/>
<path d="M178.458 122.525C178.067 123.471 176.987 123.924 176.038 123.534C175.093 123.146 174.642 122.064 175.029 121.117C175.42 120.171 176.5 119.718 177.447 120.108C178.393 120.497 178.845 121.579 178.458 122.525Z" fill="#D18C00"/>
<path d="M178.684 122.394C178.295 123.34 177.215 123.792 176.266 123.405C175.321 123.015 174.868 121.934 175.257 120.985C175.645 120.041 176.729 119.589 177.674 119.978C178.621 120.367 179.071 121.447 178.684 122.394Z" fill="#685A6B"/>
<path d="M177.288 120.161C176.564 120.011 175.816 120.39 175.524 121.097C175.233 121.805 175.5 122.601 176.119 123.002L177.288 120.161Z" fill="#524855"/>
<path d="M177.916 120.446L176.77 123.239C177.456 123.331 178.143 122.957 178.418 122.285C178.694 121.613 178.469 120.865 177.916 120.446Z" fill="#524855"/>
<path d="M198.289 94.9049C201.151 96.6469 202.062 100.379 200.32 103.24C198.579 106.103 194.847 107.011 191.982 105.268C189.122 103.527 188.211 99.7959 189.951 96.9349C191.694 94.0729 195.426 93.1659 198.289 94.9049Z" fill="#D18C00"/>
<path d="M197.979 94.1039C200.843 95.8459 201.752 99.5789 200.012 102.44C198.272 105.301 194.539 106.209 191.674 104.468C188.815 102.728 187.908 98.9969 189.647 96.1329C191.387 93.2709 195.118 92.3649 197.979 94.1039Z" fill="#685A6B"/>
<path d="M190.035 97.4849C189.185 99.7469 190.029 102.362 192.169 103.663C194.306 104.963 197.02 104.51 198.632 102.714L190.035 97.4849Z" fill="#524855"/>
<path d="M191.287 95.6001L199.736 100.739C200.381 98.5651 199.523 96.1491 197.49 94.9131C195.461 93.6791 192.919 94.0271 191.287 95.6001Z" fill="#524855"/>
</svg>
