<svg width="24" height="17" viewBox="0 0 24 17" fill="none" xmlns="http://www.w3.org/2000/svg">
<g clip-path="url(#clip0_826_2933)">
<path d="M22.9167 3.15827C22.7841 2.66815 22.5254 2.22134 22.1664 1.8623C21.8073 1.50327 21.3605 1.24455 20.8704 1.11191C19.0762 0.622559 11.8548 0.622559 11.8548 0.622559C11.8548 0.622559 4.63305 0.637371 2.83877 1.12672C2.34865 1.25937 1.90184 1.5181 1.54282 1.87715C1.1838 2.2362 0.92511 2.68304 0.792501 3.17317C0.249774 6.36125 0.0392402 11.2192 0.807404 14.2797C0.940026 14.7698 1.19873 15.2166 1.55774 15.5757C1.91676 15.9347 2.36357 16.1934 2.85367 16.3261C4.64795 16.8154 11.8695 16.8154 11.8695 16.8154C11.8695 16.8154 19.091 16.8154 20.8852 16.3261C21.3753 16.1934 21.8221 15.9347 22.1811 15.5757C22.5402 15.2167 22.7989 14.7698 22.9315 14.2797C23.504 11.0871 23.6803 6.23218 22.9167 3.15827Z" fill="#FF0000"/>
<path d="M9.55627 12.1888L15.547 8.7189L9.55627 5.24902V12.1888Z" fill="white"/>
</g>
<defs>
<clipPath id="clip0_826_2933">
<rect width="23.1217" height="16.2574" fill="white" transform="translate(0.305664 0.622559)"/>
</clipPath>
</defs>
</svg>
